<?xml version="1.0" encoding="UTF-8"?>
<svg xmlns="http://www.w3.org/2000/svg" xmlns:xlink="http://www.w3.org/1999/xlink" width="123px" height="128px" viewBox="0 0 123 128" version="1.1">
  <title>Group 39</title>
  <defs>
    <polygon id="path-1" points="0 127.352802 122.734402 127.352802 122.734402 0 0 0"></polygon>
  </defs>
  <g id="Symbols" stroke="none" stroke-width="1" fill="none" fill-rule="evenodd">
    <g id="Footer-/-Desktop-groot-1-diap-Copy-2" transform="translate(-965.000000, -165.000000)">
      <g id="Group-39" transform="translate(965.000000, 165.000000)">
        <path d="M10.2656002,126.584002 C9.62480014,126.852802 8.27520012,127.277602 6.5312001,127.277602 C4.84400007,127.277602 3.30480005,126.852802 2.01120003,125.587202 C0.948800014,124.552802 0.249600004,122.805602 0.249600004,120.708802 C0.249600004,117.120002 2.58400004,114.071202 6.9248001,114.071202 C8.29520012,114.071202 9.41840014,114.393602 9.90960015,114.641602 L9.60320014,115.400002 C8.93920013,115.060802 8.10640012,114.832802 6.8736001,114.832802 C3.36240005,114.832802 1.19360002,117.169602 1.19360002,120.674402 C1.19360002,124.321602 3.30480005,126.513602 6.6800001,126.513602 C8.03120012,126.513602 8.88160013,126.318402 9.36080014,126.051202 L9.36080014,121.479202 L6.3984001,121.479202 L6.3984001,120.732802 L10.2656002,120.732802 L10.2656002,126.584002 Z" id="Fill-1" fill="#FEFEFE"></path>
        <path d="M18.9452803,121.710562 C18.9620803,120.426562 18.4324803,118.482562 16.2324802,118.482562 C14.2252802,118.482562 13.3700802,120.292162 13.1956802,121.710562 L18.9452803,121.710562 Z M13.1356802,122.435362 C13.1356802,125.374562 14.7340802,126.548162 16.6108802,126.548162 C17.9420803,126.548162 18.6220803,126.277762 19.1372803,126.027362 L19.3636803,126.743362 C19.0268803,126.930562 18.0860803,127.332162 16.4948802,127.332162 C13.8796802,127.332162 12.2516802,125.410562 12.2516802,122.705762 C12.2516802,119.635362 13.9892802,117.718562 16.3420802,117.718562 C19.3236803,117.718562 19.8964803,120.560962 19.8964803,121.880962 C19.8964803,122.128962 19.8964803,122.276162 19.8532803,122.435362 L13.1356802,122.435362 Z" id="Fill-3" fill="#FEFEFE"></path>
        <path d="M22.0031203,120.143362 C22.0031203,119.288962 21.9887203,118.659362 21.9263203,117.927362 L22.7815203,117.927362 L22.8391203,119.540162 L22.8831203,119.540162 C23.4655203,118.482562 24.3391204,117.718562 25.8375204,117.718562 C27.0887204,117.718562 28.0575204,118.563362 28.4591204,119.713762 L28.4983204,119.713762 C28.7391204,119.174562 29.0831204,118.752962 29.4247204,118.469762 C30.0159204,117.988962 30.6191205,117.718562 31.5887205,117.718562 C32.4815205,117.718562 34.5687205,118.213762 34.5687205,121.710562 L34.5687205,127.144962 L33.6535205,127.144962 L33.6535205,121.790562 C33.6535205,119.713762 32.8639205,118.482562 31.2887205,118.482562 C30.1455204,118.482562 29.2559204,119.349762 28.8967204,120.304162 C28.8215204,120.582562 28.7391204,120.877762 28.7391204,121.228962 L28.7391204,127.144962 L27.8311204,127.144962 L27.8311204,121.364962 C27.8311204,119.713762 27.0543204,118.482562 25.5767204,118.482562 C24.3543204,118.482562 23.3935203,119.484162 23.0487203,120.560162 C22.9703203,120.828962 22.9143203,121.135362 22.9143203,121.463362 L22.9143203,127.144962 L22.0031203,127.144962 L22.0031203,120.143362 Z" id="Fill-5" fill="#FEFEFE"></path>
        <path d="M43.4515206,121.710562 C43.4731206,120.426562 42.9403206,118.482562 40.7451206,118.482562 C38.7267206,118.482562 37.8763206,120.292162 37.7091206,121.710562 L43.4515206,121.710562 Z M37.6531206,122.435362 C37.6531206,125.374562 39.2451206,126.548162 41.1219206,126.548162 C42.4483206,126.548162 43.1315206,126.277762 43.6467207,126.027362 L43.8731207,126.743362 C43.5355206,126.930562 42.6019206,127.332162 41.0107206,127.332162 C38.3923206,127.332162 36.7579205,125.410562 36.7579205,122.705762 C36.7579205,119.635362 38.5027206,117.718562 40.8563206,117.718562 C43.8347207,117.718562 44.4075207,120.560962 44.4075207,121.880962 C44.4075207,122.128962 44.4075207,122.276162 44.3715207,122.435362 L37.6531206,122.435362 Z" id="Fill-7" fill="#FEFEFE"></path>
        <path d="M52.7218408,121.710562 C52.7402408,120.426562 52.2154408,118.482562 50.0106407,118.482562 C47.9954407,118.482562 47.1418407,120.292162 46.9730407,121.710562 L52.7218408,121.710562 Z M46.9218407,122.435362 C46.9218407,125.374562 48.5186407,126.548162 50.3858408,126.548162 C51.7186408,126.548162 52.3938408,126.277762 52.9122408,126.027362 L53.1418408,126.743362 C52.8034408,126.930562 51.8706408,127.332162 50.2794407,127.332162 C47.6514407,127.332162 46.0218407,125.410562 46.0218407,122.705762 C46.0218407,119.635362 47.7706407,117.718562 50.1234407,117.718562 C53.1034408,117.718562 53.6762408,120.560962 53.6762408,121.880962 C53.6762408,122.128962 53.6762408,122.276162 53.6314408,122.435362 L46.9218407,122.435362 Z" id="Fill-9" fill="#FEFEFE"></path>
        <path d="M55.7812008,120.143362 C55.7812008,119.288962 55.7628008,118.659362 55.7108008,117.927362 L56.5596008,117.927362 L56.6172008,119.580962 L56.6516008,119.580962 C57.1436009,118.541762 58.3092009,117.718562 59.7924009,117.718562 C60.6644009,117.718562 62.9732009,118.160162 62.9732009,121.613762 L62.9732009,127.144962 L62.0716009,127.144962 L62.0716009,121.687362 C62.0716009,120.005762 61.4188009,118.482562 59.5420009,118.482562 C58.2732009,118.482562 57.1684009,119.408962 56.8076008,120.615362 C56.7548008,120.828962 56.6996008,121.135362 56.6996008,121.418562 L56.6996008,127.144962 L55.7812008,127.144962 L55.7812008,120.143362 Z" id="Fill-11" fill="#FEFEFE"></path>
        <path d="M66.812481,115.894962 L66.812481,117.927762 L69.418881,117.927762 L69.418881,118.673362 L66.812481,118.673362 L66.812481,124.662162 C66.812481,125.840562 67.170081,126.570162 68.145281,126.570162 C68.615681,126.570162 68.958081,126.513362 69.184481,126.432562 L69.299681,127.124562 C68.994081,127.238962 68.576481,127.332562 68.030881,127.332562 C67.359681,127.332562 66.812481,127.124562 66.468481,126.702962 C66.054881,126.221362 65.896481,125.432562 65.896481,124.491762 L65.896481,118.673362 L64.366881,118.673362 L64.366881,117.927762 L65.896481,117.927762 L65.896481,116.240562 L66.812481,115.894962 Z" id="Fill-13" fill="#FEFEFE"></path>
        <path d="M76.9359211,121.710562 C76.9519211,120.426562 76.4215211,118.482562 74.2127211,118.482562 C72.1983211,118.482562 71.3503211,120.292162 71.1799211,121.710562 L76.9359211,121.710562 Z M71.1215211,122.435362 C71.1215211,125.374562 72.7095211,126.548162 74.5967211,126.548162 C75.9199211,126.548162 76.6063211,126.277762 77.1231211,126.027362 L77.3439212,126.743362 C77.0047211,126.930562 76.0719211,127.332162 74.4815211,127.332162 C71.8607211,127.332162 70.232721,125.410562 70.232721,122.705762 C70.232721,119.635362 71.9767211,117.718562 74.3311211,117.718562 C77.3111212,117.718562 77.8783212,120.560962 77.8783212,121.880962 C77.8783212,122.128962 77.8783212,122.276162 77.8407212,122.435362 L71.1215211,122.435362 Z" id="Fill-15" fill="#FEFEFE"></path>
        <polygon id="Fill-17" fill="#FEFEFE" points="83.5000012 125.840242 90.0232013 116.218642 90.0232013 116.168242 84.0624013 116.168242 84.0624013 114.207442 93.0608014 114.207442 93.0608014 115.589042 86.6112013 125.127442 86.6112013 125.184242 93.1504014 125.184242 93.1504014 127.145042 83.5000012 127.145042"></polygon>
        <path d="M100.595281,121.479282 C100.618481,120.615282 100.237681,119.199282 98.6808815,119.199282 C97.2408814,119.199282 96.6312814,120.528082 96.5376814,121.479282 L100.595281,121.479282 Z M96.5376814,123.132082 C96.5936814,124.821682 97.8824815,125.546482 99.3824815,125.546482 C100.464081,125.546482 101.226482,125.374482 101.942482,125.128082 L102.287282,126.743282 C101.488882,127.085682 100.392081,127.332082 99.0608815,127.332082 C96.0592814,127.332082 94.3016814,125.476082 94.3016814,122.613682 C94.3016814,120.020082 95.8456814,117.579282 98.8112815,117.579282 C101.812082,117.579282 102.800082,120.074482 102.800082,122.128882 C102.800082,122.577682 102.760882,122.920082 102.723282,123.132082 L96.5376814,123.132082 Z" id="Fill-19" fill="#FEFEFE"></path>
        <mask id="mask-2" fill="white">
          <use xlink:href="#path-1"></use>
        </mask>
        <g id="Clip-22"></g>
        <path d="M104.687202,127.145602 L107.018402,127.145602 L107.018402,117.798402 L104.687202,117.798402 L104.687202,127.145602 Z M107.178402,115.182402 C107.178402,115.877602 106.664002,116.449602 105.845602,116.449602 C105.075202,116.449602 104.562402,115.877602 104.562402,115.182402 C104.562402,114.451202 105.084002,113.898402 105.868802,113.898402 C106.664002,113.898402 107.157602,114.451202 107.178402,115.182402 L107.178402,115.182402 Z" id="Fill-21" fill="#FEFEFE" mask="url(#mask-2)"></path>
        <path d="M109.343762,124.954322 C109.856562,125.282322 110.860562,125.644722 111.692562,125.644722 C112.723762,125.644722 113.181362,125.203122 113.181362,124.590322 C113.181362,123.957522 112.790962,123.654322 111.654962,123.224722 C109.856562,122.613522 109.107762,121.613522 109.107762,120.501522 C109.107762,118.846322 110.463762,117.579122 112.614162,117.579122 C113.630962,117.579122 114.520562,117.829522 115.074962,118.141522 L114.601362,119.790322 C114.220562,119.557522 113.459762,119.247922 112.643762,119.247922 C111.812562,119.247922 111.350162,119.674322 111.350162,120.252722 C111.350162,120.843122 111.790962,121.113522 112.956562,121.559122 C114.659762,122.152722 115.420562,123.016722 115.434162,124.398322 C115.434162,126.107122 114.123762,127.332722 111.679762,127.332722 C110.551762,127.332722 109.545362,127.065522 108.873362,126.683922 L109.343762,124.954322 Z" id="Fill-23" fill="#FEFEFE" mask="url(#mask-2)"></path>
        <path d="M120.074962,115.399602 L120.074962,117.798002 L122.291762,117.798002 L122.291762,119.557202 L120.074962,119.557202 L120.074962,123.686802 C120.074962,124.840402 120.370162,125.410802 121.271762,125.410802 C121.684562,125.410802 121.914162,125.396402 122.184562,125.322802 L122.223762,127.109202 C121.873362,127.238802 121.253362,127.352402 120.526162,127.352402 C119.656562,127.352402 118.953362,127.065202 118.518962,126.583602 C118.006162,126.050802 117.776562,125.183602 117.776562,123.957202 L117.776562,119.557202 L116.465362,119.557202 L116.465362,117.798002 L117.776562,117.798002 L117.776562,116.052402 L120.074962,115.399602 Z" id="Fill-24" fill="#FEFEFE" mask="url(#mask-2)"></path>
        <path d="M0,80.9215212 C6.4840001,80.7743212 16.7200002,80.1447212 28.0200004,79.9055212 L38.5032006,71.0671211 C22.5080003,70.6951211 8.37840012,70.344721 0,70.131121 L0,80.9215212 Z" id="Fill-25" fill="#FEFEFE" mask="url(#mask-2)"></path>
        <path d="M0,68.982401 C9.13440014,68.774401 24.7032004,68.429601 42.0440006,68.079201 L52.2920008,59.4384009 C30.8640005,58.9640009 10.7248002,58.4656009 0,58.1936009 L0,68.982401 Z" id="Fill-26" fill="#FEFEFE" mask="url(#mask-2)"></path>
        <path d="M0,57.0402408 C11.6280002,56.7778408 33.6736005,56.2914408 56.5376008,55.8514408 L66.092001,47.7914407 C39.8768006,47.2498407 13.0128002,46.5810407 0,46.2514407 L0,57.0402408 Z" id="Fill-27" fill="#FEFEFE" mask="url(#mask-2)"></path>
        <path d="M0,92.0605614 C3.48160005,91.9805614 8.79040013,91.7109614 13.8784002,91.5997614 L24.2344004,83.0933612 C14.0640002,82.8477612 5.86880009,82.2213612 0,82.0717612 L0,92.0605614 Z" id="Fill-28" fill="#FEFEFE" mask="url(#mask-2)"></path>
        <path d="M0,45.1027207 C14.0752002,44.7811207 43.4296006,44.1355207 71.0144011,43.6451207 L79.9216012,36.1275205 C49.8576007,35.5571205 15.3248002,34.7027205 0,34.3123205 L0,45.1027207 Z" id="Fill-29" fill="#FEFEFE" mask="url(#mask-2)"></path>
        <polygon id="Fill-30" fill="#FEFEFE" mask="url(#mask-2)" points="122.734402 -0.000400000006 0 -0.000400000006 0 9.28280014 111.808002 9.28280014 122.734402 0.0140000002"></polygon>
        <path d="M0,33.1605605 C16.5832002,32.7869605 54.3504008,31.9573605 85.4608013,31.4573605 L96.1856014,22.3717603 L0,22.3717603 L0,33.1605605 Z" id="Fill-31" fill="#FEFEFE" mask="url(#mask-2)"></path>
        <path d="M0,103.541842 L11.4608002,94.2586414 C7.55600011,93.8362414 2.40160004,93.4106414 0,93.2106414 L0,103.541842 Z" id="Fill-32" fill="#FEFEFE" mask="url(#mask-2)"></path>
        <path d="M122.734402,57.2918409 L122.734402,46.8230407 C111.893602,47.6326407 99.4376015,51.2350408 86.5272013,56.4086408 C101.573602,56.7590408 114.757602,57.0886409 122.734402,57.2918409" id="Fill-33" fill="#FEFEFE" mask="url(#mask-2)"></path>
        <path d="M61.8008009,67.799601 C86.3192013,68.318801 110.574402,68.922001 122.734402,69.229201 L122.734402,58.4388009 C113.386402,58.6524009 97.2984014,59.0092009 79.4672012,59.3684009 C73.5928011,61.9404009 67.668801,64.786001 61.8008009,67.799601" id="Fill-34" fill="#FEFEFE" mask="url(#mask-2)"></path>
        <path d="M40.3382406,79.6184012 C70.9454411,80.1296012 107.078242,80.7712012 122.734242,81.1680012 L122.734242,70.380801 C109.081442,70.6896011 81.0686412,71.3056011 54.2326408,71.7928011 C49.5150407,74.3432011 44.8654407,76.9704011 40.3382406,79.6184012" id="Fill-35" fill="#FEFEFE" mask="url(#mask-2)"></path>
        <path d="M21.3944803,91.2043214 C54.5728808,91.3139214 103.621682,92.6227214 122.734482,93.1107214 L122.734482,82.3187212 C105.353682,82.7123212 64.692081,83.6059212 32.8232805,84.0955213 C28.8712804,86.4923213 25.0480804,88.8763213 21.3944803,91.2043214" id="Fill-36" fill="#FEFEFE" mask="url(#mask-2)"></path>
        <path d="M15.6257602,94.9230414 C10.9393602,97.9798415 6.6089601,100.888642 2.73616004,103.541442 L122.734562,103.541442 L122.734562,94.2590414 C101.637762,94.7366414 47.7305607,96.1574414 15.6257602,94.9230414" id="Fill-37" fill="#FEFEFE" mask="url(#mask-2)"></path>
        <polygon id="Fill-38" fill="#FEFEFE" mask="url(#mask-2)" points="10.2664002 94.6816814 10.2656002 94.6816814 10.2464002 94.6984814"></polygon>
      </g>
    </g>
  </g>
</svg>
