<svg id="Layer_1" data-name="Layer 1" xmlns="http://www.w3.org/2000/svg" viewBox="0 0 523.28 508.25"><defs><style>.cls-1{fill:#a1e94e;}.cls-2{fill:#004646;}</style></defs><polygon class="cls-1" points="0 0.15 41.19 63.53 0 126.91 0 127.22 41.19 190.59 0 253.97 0 254.28 41.19 317.66 0 381.04 0 381.35 41.19 444.72 0 508.1 0 508.25 523.25 508.25 523.25 507.68 482.33 444.72 523.25 381.76 523.25 380.62 482.33 317.66 523.25 254.7 523.25 253.56 482.33 190.59 523.25 127.64 523.25 126.49 482.33 63.53 523.25 0.57 523.25 0 0 0 0 0.15"/><path class="cls-2" d="M147.73,148.9c-4.55,8.84-12.62,13.78-21.59,13.78-16.52,0-29.14-14.82-29.14-35.51,0-20.42,12.62-35.37,29.14-35.37,9,0,16.91,4.94,21.59,13.65V63.31h23.93v97.55H147.73Zm-13.79-8.07a15.92,15.92,0,0,0,13.79-8.58v-9.76a15.79,15.79,0,0,0-13.79-8.71c-7.28,0-13,5.46-13,13.39S126.66,140.83,133.94,140.83Z"/><path class="cls-2" d="M215.05,162.68c-20.81,0-35.51-15.22-35.51-35.64,0-19.51,14.7-35.24,35.51-35.24,24.19,0,35.38,19.51,35.38,37.59H200.35c1,8.58,6.77,13.52,14.83,13.52,6.11,0,11.31-2.86,13.4-7h21.2C246.79,151.76,232.87,162.68,215.05,162.68ZM201.52,119.5h26.41c-1.83-5.59-6.38-8.84-12.88-8.84A14,14,0,0,0,201.52,119.5Z"/><path class="cls-2" d="M94.14,316.15V297.68h6c3,0,4.55-1.56,4.55-4.55V241.76H94.92V222.9h9.76v-7.81c0-14.18,8.32-22.5,25.88-22.5h9.63v18.47h-6.12c-3,0-4.55,1.56-4.55,4.55v7.29h10.67v18.86H129.52v51.89c0,14.18-8.32,22.5-25.88,22.5Z"/><path class="cls-2" d="M174.57,252.68v37.46H149.86V222.9h24.71v14c4.29-9.62,11.84-15.86,20.81-15.86v27.57A62.11,62.11,0,0,0,174.57,252.68Z"/><path class="cls-2" d="M206.48,213.4V192.59h24.84V213.4Zm0,76.74V222.9h24.84v67.24Z"/><path class="cls-2" d="M242.85,290.14V270.63h31.87c3.9,0,5.59-1.3,5.59-3.77s-1.56-3.77-5.46-3.77H263.8c-14.05,0-22.38-8.59-22.38-20.42s9.63-19.77,22.25-19.77h33.42v19.51H266.14c-2.34,0-3.65.78-3.65,2.6s1.31,2.73,3.65,2.73h10.53c15.87,0,23.93,9.1,23.93,21.07s-8.45,21.33-24.06,21.33Z"/><path class="cls-2" d="M308,290.14V270.63h31.87c3.9,0,5.59-1.3,5.59-3.77s-1.56-3.77-5.46-3.77H329c-14,0-22.37-8.59-22.37-20.42s9.63-19.77,22.24-19.77h33.43v19.51H331.3c-2.35,0-3.65.78-3.65,2.6s1.3,2.73,3.65,2.73h10.53c15.87,0,23.93,9.1,23.93,21.07s-8.45,21.33-24.06,21.33Z"/><path class="cls-2" d="M407.16,292c-20.81,0-35.51-15.22-35.51-35.64,0-19.51,14.7-35.24,35.51-35.24,24.19,0,35.38,19.51,35.38,37.58H392.46c1,8.59,6.77,13.53,14.83,13.53,6.11,0,11.32-2.86,13.4-7h21.2C438.9,281,425,292,407.16,292Zm-13.53-43.18H420c-1.83-5.59-6.38-8.85-12.88-8.85A14,14,0,0,0,393.63,248.78Z"/><path class="cls-2" d="M122.37,407.45v38H98.56V352.17h23.81v12c4.68-8.84,12.61-13.79,21.59-13.79,16.65,0,29.26,14.83,29.26,35.51,0,20.42-12.61,35.38-29.26,35.38C135.11,421.24,127.05,416.17,122.37,407.45Zm0-26.53v9.49c2.21,4.56,7.28,9,13.78,9,7.29,0,13-5.59,13-13.53s-5.72-13.53-13-13.53A15.6,15.6,0,0,0,122.37,380.92Z"/><path class="cls-2" d="M183.23,342.68V321.87h24.84v20.81Zm0,76.74V352.17h24.84v67.25Z"/><path class="cls-2" d="M252.6,371v48.39H227.76V371H218V352.17h9.75V333.31H252.6v18.86h9.89V371Z"/><path class="cls-2" d="M304.41,421.24c-22.25,0-37.07-14.83-37.07-35.51,0-20.29,14.82-35.38,37.07-35.38,18.6,0,32.9,11.45,35.11,29.53H317.15a13.5,13.5,0,0,0-12.74-7.94c-8.33,0-14.05,6.12-14.05,13.79,0,7.94,5.72,14,14.05,14A13.64,13.64,0,0,0,317,392.36h22.37C337.31,410.31,323,421.24,304.41,421.24Z"/><path class="cls-2" d="M372.85,376.37v43.05H348.14V321.87h24.71v42.4A26.6,26.6,0,0,1,396,350.35c13.52,0,21.72,9.37,21.72,24.59v44.48H392.88V383c0-6.63-2.86-10.67-9.62-10.67A16.45,16.45,0,0,0,372.85,376.37Z"/></svg>