<svg id="Layer_1" data-name="Layer 1" xmlns="http://www.w3.org/2000/svg" viewBox="0 0 425.2 425.2"><defs><style>.cls-1{fill:#004646;}</style></defs><path class="cls-1" d="M98.69,107.83c-4.55,8.85-12.62,13.79-21.59,13.79C60.58,121.62,48,106.79,48,86.11,48,65.69,60.58,50.74,77.1,50.74c9,0,16.91,4.94,21.59,13.65V22.25h23.93V119.8H98.69ZM84.9,99.77a15.92,15.92,0,0,0,13.79-8.58V81.43A15.79,15.79,0,0,0,84.9,72.72c-7.28,0-13,5.46-13,13.39S77.62,99.77,84.9,99.77Z"/><path class="cls-1" d="M166,121.62c-20.81,0-35.51-15.22-35.51-35.64,0-19.51,14.7-35.24,35.51-35.24,24.19,0,35.38,19.51,35.38,37.58H151.31c1,8.59,6.77,13.53,14.83,13.53,6.11,0,11.32-2.86,13.4-7h21.2C197.75,110.7,183.83,121.62,166,121.62ZM152.48,78.44h26.41c-1.82-5.59-6.38-8.85-12.88-8.85A14,14,0,0,0,152.48,78.44Z"/><path class="cls-1" d="M45.1,275.09V256.62h6c3,0,4.55-1.56,4.55-4.55V200.69H45.88V181.83h9.76V174c0-14.18,8.32-22.5,25.88-22.5h9.63V170H85c-3,0-4.55,1.56-4.55,4.55v7.28H91.15v18.86H80.48v51.9c0,14.18-8.32,22.5-25.88,22.5Z"/><path class="cls-1" d="M125.53,211.62v37.46H100.82V181.83h24.71v14c4.29-9.62,11.84-15.87,20.81-15.87v27.58A62.11,62.11,0,0,0,125.53,211.62Z"/><path class="cls-1" d="M157.44,172.34V151.53h24.84v20.81Zm0,76.74V181.83h24.84v67.25Z"/><path class="cls-1" d="M193.82,249.08V229.57h31.86c3.9,0,5.59-1.3,5.59-3.77s-1.56-3.77-5.46-3.77H214.76c-14,0-22.38-8.59-22.38-20.42s9.63-19.78,22.25-19.78h33.42v19.51h-31c-2.34,0-3.64.79-3.64,2.61s1.3,2.73,3.64,2.73h10.53c15.87,0,23.93,9.1,23.93,21.07s-8.45,21.33-24.06,21.33Z"/><path class="cls-1" d="M259,249.08V229.57h31.87c3.9,0,5.59-1.3,5.59-3.77S294.87,222,291,222H279.91c-14,0-22.37-8.59-22.37-20.42s9.63-19.78,22.24-19.78h33.43v19.51H282.26c-2.35,0-3.65.79-3.65,2.61s1.3,2.73,3.65,2.73h10.53c15.87,0,23.93,9.1,23.93,21.07s-8.45,21.33-24.06,21.33Z"/><path class="cls-1" d="M358.12,250.9c-20.81,0-35.51-15.22-35.51-35.64,0-19.51,14.7-35.25,35.51-35.25,24.19,0,35.38,19.51,35.38,37.59H343.42c1,8.59,6.77,13.53,14.83,13.53,6.11,0,11.32-2.86,13.4-7h21.2C389.86,240,375.94,250.9,358.12,250.9Zm-13.53-43.18H371c-1.82-5.59-6.38-8.85-12.88-8.85A14,14,0,0,0,344.59,207.72Z"/><path class="cls-1" d="M73.33,366.39v38H49.53V311.11h23.8v12c4.68-8.85,12.61-13.79,21.59-13.79,16.65,0,29.26,14.83,29.26,35.51,0,20.42-12.61,35.38-29.26,35.38C86.07,380.18,78,375.11,73.33,366.39Zm0-26.53v9.49c2.21,4.55,7.28,9,13.78,9,7.29,0,13-5.6,13-13.53s-5.72-13.53-13-13.53A15.6,15.6,0,0,0,73.33,339.86Z"/><path class="cls-1" d="M134.19,301.62V280.81H159v20.81Zm0,76.74V311.11H159v67.25Z"/><path class="cls-1" d="M203.56,330v48.39H178.72V330H169V311.11h9.75V292.25h24.84v18.86h9.89V330Z"/><path class="cls-1" d="M255.37,380.18c-22.25,0-37.07-14.83-37.07-35.51,0-20.29,14.82-35.38,37.07-35.38,18.6,0,32.9,11.45,35.11,29.53H268.11a13.48,13.48,0,0,0-12.74-7.94c-8.33,0-14.05,6.12-14.05,13.79A14.19,14.19,0,0,0,268,351.3h22.37C288.27,369.25,274,380.18,255.37,380.18Z"/><path class="cls-1" d="M323.82,335.31v43.05H299.1V280.81h24.72v42.4A26.55,26.55,0,0,1,347,309.29c13.52,0,21.72,9.37,21.72,24.58v44.49H343.85V341.94c0-6.63-2.87-10.67-9.63-10.67A16.34,16.34,0,0,0,323.82,335.31Z"/></svg>