<svg id="Layer_1" data-name="Layer 1" xmlns="http://www.w3.org/2000/svg" viewBox="0 0 480.88 522.49"><defs><style>.cls-1{fill:#a1e94e;}.cls-2{fill:#004646;}</style></defs><polygon class="cls-1" points="480.73 0 420.77 38.97 360.8 0 360.51 0 300.55 38.97 240.59 0 240.29 0 180.33 38.97 120.36 0 120.07 0 60.11 38.97 0.15 0 0 0 0 522.49 0.54 522.49 60.11 483.77 119.68 522.49 120.76 522.49 180.33 483.77 239.9 522.49 240.98 522.49 300.55 483.77 360.12 522.49 361.2 522.49 420.77 483.77 480.34 522.49 480.88 522.49 480.88 0 480.73 0"/><path class="cls-2" d="M126.53,156.48c-4.55,8.84-12.62,13.79-21.59,13.79-16.52,0-29.14-14.83-29.14-35.51,0-20.42,12.62-35.38,29.14-35.38,9,0,16.91,4.94,21.59,13.66V70.9h23.93v97.55H126.53Zm-13.79-8.06a15.93,15.93,0,0,0,13.79-8.59v-9.75a15.78,15.78,0,0,0-13.79-8.72c-7.28,0-13,5.46-13,13.4S105.46,148.42,112.74,148.42Z"/><path class="cls-2" d="M193.85,170.27c-20.81,0-35.51-15.22-35.51-35.64,0-19.51,14.7-35.25,35.51-35.25,24.19,0,35.38,19.51,35.38,37.59H179.15c1,8.58,6.77,13.53,14.83,13.53,6.11,0,11.32-2.87,13.4-7h21.2C225.59,159.34,211.67,170.27,193.85,170.27Zm-13.53-43.19h26.41c-1.82-5.59-6.38-8.84-12.88-8.84A14,14,0,0,0,180.32,127.08Z"/><path class="cls-2" d="M72.94,323.74V305.27h6c3,0,4.55-1.56,4.55-4.55V249.34H73.72V230.48h9.76v-7.8c0-14.18,8.32-22.51,25.88-22.51H119v18.47h-6.12c-3,0-4.55,1.57-4.55,4.56v7.28H119v18.86H108.32v51.9c0,14.17-8.32,22.5-25.88,22.5Z"/><path class="cls-2" d="M153.37,260.26v37.46H128.66V230.48h24.71v14.05c4.29-9.63,11.84-15.87,20.81-15.87v27.57A62.11,62.11,0,0,0,153.37,260.26Z"/><path class="cls-2" d="M185.28,221V200.17h24.84V221Zm0,76.73V230.48h24.84v67.24Z"/><path class="cls-2" d="M221.66,297.72V278.21h31.86c3.9,0,5.59-1.3,5.59-3.77s-1.56-3.77-5.46-3.77H242.6c-14,0-22.38-8.58-22.38-20.42s9.63-19.77,22.25-19.77h33.42V250H244.94c-2.34,0-3.64.78-3.64,2.6s1.3,2.73,3.64,2.73h10.53c15.87,0,23.93,9.11,23.93,21.07s-8.45,21.33-24.06,21.33Z"/><path class="cls-2" d="M286.81,297.72V278.21h31.87c3.9,0,5.59-1.3,5.59-3.77s-1.56-3.77-5.46-3.77H307.75c-14,0-22.37-8.58-22.37-20.42s9.63-19.77,22.24-19.77h33.43V250H310.1c-2.35,0-3.65.78-3.65,2.6s1.3,2.73,3.65,2.73h10.53c15.87,0,23.93,9.11,23.93,21.07s-8.45,21.33-24.06,21.33Z"/><path class="cls-2" d="M386,299.54c-20.81,0-35.51-15.21-35.51-35.63,0-19.51,14.7-35.25,35.51-35.25,24.19,0,35.38,19.51,35.38,37.59H371.26c1,8.58,6.77,13.52,14.83,13.52,6.11,0,11.32-2.86,13.4-7h21.2C417.7,288.62,403.78,299.54,386,299.54Zm-13.53-43.18h26.41c-1.82-5.59-6.38-8.84-12.88-8.84A14,14,0,0,0,372.43,256.36Z"/><path class="cls-2" d="M101.17,415v38H77.37V359.76h23.8v12c4.68-8.84,12.61-13.78,21.59-13.78,16.65,0,29.26,14.82,29.26,35.5,0,20.43-12.61,35.38-29.26,35.38C113.91,428.82,105.85,423.75,101.17,415Zm0-26.54V398c2.21,4.55,7.28,9,13.78,9,7.29,0,13-5.59,13-13.53s-5.72-13.52-13-13.52A15.59,15.59,0,0,0,101.17,388.5Z"/><path class="cls-2" d="M162,350.26V329.45h24.85v20.81ZM162,427V359.76h24.85V427Z"/><path class="cls-2" d="M231.4,378.62V427H206.56V378.62h-9.75V359.76h9.75V340.9H231.4v18.86h9.89v18.86Z"/><path class="cls-2" d="M283.21,428.82c-22.25,0-37.07-14.82-37.07-35.51,0-20.29,14.82-35.37,37.07-35.37,18.6,0,32.9,11.44,35.11,29.52H296a13.49,13.49,0,0,0-12.74-7.93c-8.33,0-14,6.11-14,13.78,0,7.94,5.72,14.05,14,14.05A13.65,13.65,0,0,0,295.82,400h22.37C316.11,417.9,301.81,428.82,283.21,428.82Z"/><path class="cls-2" d="M351.66,384V427H326.94V329.45h24.72v42.4a26.56,26.56,0,0,1,23.15-13.91c13.52,0,21.72,9.36,21.72,24.58V427H371.69V390.58c0-6.63-2.87-10.66-9.63-10.66A16.39,16.39,0,0,0,351.66,384Z"/></svg>