<svg id="Layer_1" data-name="Layer 1" xmlns="http://www.w3.org/2000/svg" viewBox="0 0 68.8 68.8"><defs><style>.cls-1{fill:#004646;}.cls-2{fill:#fff;fill-rule:evenodd;}.cls-3{fill:none;stroke:#a1e94e;stroke-linecap:square;stroke-miterlimit:10;stroke-width:2px;}</style></defs><circle class="cls-1" cx="34.4" cy="34.4" r="34.4"/><path class="cls-2" d="M34.4,21.26a11,11,0,0,0-8.08,18.37,8.82,8.82,0,0,1,2.39,6.15V46H40.09v-.17a8.87,8.87,0,0,1,2.39-6.15A11,11,0,0,0,34.4,21.26Z"/><path class="cls-2" d="M37.84,52.12H31a3.59,3.59,0,0,0,3.44,2.65,3.55,3.55,0,0,0,3.44-2.65Z"/><path class="cls-2" d="M40.09,47.31H28.71v2.37a1.08,1.08,0,0,0,1.09,1.08H39a1.08,1.08,0,0,0,1.09-1.08V47.31Z"/><line class="cls-3" x1="34.21" y1="12.25" x2="34.21" y2="16.36"/><line class="cls-3" x1="55.56" y1="32.9" x2="51.46" y2="32.9"/><line class="cls-3" x1="16.66" y1="32.9" x2="12.56" y2="32.9"/><line class="cls-3" x1="49.26" y1="17.7" x2="46.36" y2="20.6"/><line class="cls-3" x1="21.76" y1="45.21" x2="18.86" y2="48.11"/><line class="cls-3" x1="49.26" y1="48.11" x2="46.36" y2="45.21"/><line class="cls-3" x1="21.76" y1="20.6" x2="18.86" y2="17.7"/></svg>