<svg id="Layer_1" data-name="Layer 1" xmlns="http://www.w3.org/2000/svg" viewBox="0 0 75.35 67.5"><defs><style>.cls-1{fill:#9997f1;}.cls-2{fill:none;stroke:#fff;stroke-linecap:square;stroke-linejoin:bevel;stroke-width:4px;}.cls-3{fill:#fff;}</style></defs><path class="cls-1" d="M30.34,4.23,1.15,54.79A8.47,8.47,0,0,0,8.48,67.5H66.86A8.48,8.48,0,0,0,74.2,54.79L45,4.23A8.47,8.47,0,0,0,30.34,4.23Z"/><polyline class="cls-2" points="52.23 41.81 58.94 54.38 39.77 54.38"/><polygon class="cls-3" points="40.42 59.24 40.42 49.52 35.56 54.38 40.42 59.24"/><polyline class="cls-2" points="30.65 54.41 16.4 54.41 25.43 37.49"/><polygon class="cls-3" points="20.84 35.77 29.41 40.35 27.41 33.78 20.84 35.77"/><polyline class="cls-2" points="30.28 29.79 37.44 17.47 47.53 33.78"/><polygon class="cls-3" points="51.32 30.68 43.05 35.79 49.74 37.36 51.32 30.68"/></svg>