<svg id="Layer_1" data-name="Layer 1" xmlns="http://www.w3.org/2000/svg" viewBox="0 0 68.8 68.8"><defs><style>.cls-1{fill:#004646;}.cls-2{fill:#fff;}.cls-3{fill:#9997f1;}</style></defs><circle class="cls-1" cx="34.4" cy="34.4" r="34.4"/><path class="cls-2" d="M43.14,50.72V38.92h0a10.2,10.2,0,0,1-1.29,1.59L38.16,44.2a13.23,13.23,0,0,1-6.51,3.57,5.82,5.82,0,0,0,.67,7.43,6.34,6.34,0,0,0,10.82-4.48Zm0,0"/><path class="cls-2" d="M28.29,27a8.6,8.6,0,0,1,1.61-1.29,0,0,0,0,0,0,0H18.09a6.34,6.34,0,0,0-4.48,10.82,5.81,5.81,0,0,0,7.42.68,13.22,13.22,0,0,1,3.57-6.51Zm0,0"/><path class="cls-3" d="M48.68,25.53l1.64-.66a4.44,4.44,0,0,1,4.79,1h0a1.16,1.16,0,0,0,1.65,0,1.18,1.18,0,0,0,0-1.63,6.74,6.74,0,0,0-7.24-1.46l-2.25.9.28.27a6.78,6.78,0,0,1,1.18,1.62Zm0,0"/><path class="cls-3" d="M43,13.69h0a4.43,4.43,0,0,1,1,4.79l-.66,1.65a6.34,6.34,0,0,1,1.62,1.18l.27.27.9-2.24A6.72,6.72,0,0,0,44.6,12.1,1.16,1.16,0,0,0,43,12a1.14,1.14,0,0,0,0,1.65Zm0,0"/><path class="cls-3" d="M24.17,35.12l9.52,9.51a11.22,11.22,0,0,0,2.23-1.48L25.65,32.89a11.08,11.08,0,0,0-1.48,2.23Zm0,0"/><rect class="cls-3" x="32.02" y="28.18" width="2.62" height="14.58" transform="translate(-15.32 33.96) rotate(-45)"/><path class="cls-3" d="M30.79,27.83,41,38a7.28,7.28,0,0,0,1.32-5.31,4.22,4.22,0,0,0,3.58-7.16l-2.6-2.61a4.22,4.22,0,0,0-7.16,3.59,7.25,7.25,0,0,0-5.32,1.31Zm0,0"/><path class="cls-3" d="M23,39.25,22.63,45a1.17,1.17,0,0,0,.33.89,1.12,1.12,0,0,0,.9.33l5.7-.4a12.74,12.74,0,0,0,1.75-.27l-8-8A10.13,10.13,0,0,0,23,39.25Zm0,0"/></svg>